<svg xmlns="http://www.w3.org/2000/svg" viewBox="0 0 431.93 431.32"><defs><style>.cls-1{fill:#5c4a56;}.cls-10,.cls-2,.cls-6,.cls-9{fill:none;}.cls-2{stroke:#bcbec0;stroke-width:3px;}.cls-10,.cls-2,.cls-4,.cls-6,.cls-7,.cls-8,.cls-9{stroke-miterlimit:10;}.cls-3,.cls-4{fill:#7e8959;}.cls-10,.cls-4,.cls-9{stroke:#fff;}.cls-4{stroke-width:1.3px;}.cls-4,.cls-8{opacity:0.68;}.cls-5{fill:#a7a9ac;}.cls-6,.cls-7,.cls-8{stroke:#808285;}.cls-7{fill:#21409a;}.cls-8{fill:#808285;}.cls-9{fill-rule:evenodd;}.cls-11{opacity:0.95;}.cls-12{fill:#f1f2f2;}.cls-13{font-size:4.6px;fill:#fff;font-family:SegoeScript, Segoe Script;}.cls-14{letter-spacing:0.01em;}.cls-15{letter-spacing:-0.08em;}</style></defs><g id="Background"><rect class="cls-1" x="0.38" width="431.93" height="431.32" rx="63.96"/></g><g id="Layer_1" data-name="Layer 1"><path class="cls-2" d="M66.89,248.74c-18.06-3.45-58.41-46.23-20.65-72.66,72.11-50.48,161.1,14.48,237.25,15.73,38.39.63,57.9-19.51,82.44-16.36,10.24,1.31,33.23,13.81,34.61,39.64,1.89,35.24-18.17,46.65-32.09,47.83-29.58,2.52-50.67-17.7-64.63-17.12-33.54,1.39-41.6,39.16-6.36,53.29,14,6.2,24.42,11.66,36.54,32.35"/><path class="cls-3" d="M353.4,387.07l28.1-20.25a2.81,2.81,0,0,0,1.13-1.84l2-13a2.83,2.83,0,0,0-.51-2.13l-21.65-30a2.89,2.89,0,0,0-1.87-1.16l-10.78-1.78a2.79,2.79,0,0,0-2.1.49l-13.53,9.75.09.11a2.47,2.47,0,1,1-4,2.89l-.08-.12-13.11,9.44a2.77,2.77,0,0,0-1.13,1.84l-1.81,11.52a2.87,2.87,0,0,0,.51,2.14l21,29.12a2.92,2.92,0,0,0,1.89,1.17l13.7,2.27A2.86,2.86,0,0,0,353.4,387.07Z"/><path class="cls-4" d="M340.52,355.91l-2.38-17.77a1.14,1.14,0,0,1,1.6-1.19l16.45,7.41a1.14,1.14,0,0,1,.2,2l-14.07,10.36A1.14,1.14,0,0,1,340.52,355.91Z"/><path class="cls-5" d="M255.2,310.07,182,410.65a5.19,5.19,0,0,1-7.27.83l-123.61-90a5.69,5.69,0,0,1-2-2.63L38.27,289.46a4.82,4.82,0,0,1,.57-4.55l52.37-71.66a4.83,4.83,0,0,1,3.94-1.93l31.09.05a5.7,5.7,0,0,1,3.33,1.1L253.75,302.9A5.18,5.18,0,0,1,255.2,310.07Z"/><polyline class="cls-6" points="72.06 289.69 106.3 242.67 92.9 211.94"/><path class="cls-7" d="M127.5,211.73l-27.06,17.5Z"/><path class="cls-7" d="M49.81,319.77l6.78-31.5Z"/><path class="cls-8" d="M181.33,405l68.79-94.47c1.68-2.31.29-6.18-3.11-8.66l-76-55.33a1.49,1.49,0,0,0-2.17.35c-10.84,18.36-34.21,40-49,40.8-13.6.71-26.19,24.19-40,48.24a1.51,1.51,0,0,0,.5,1.95l91.75,66.82C175.53,407.17,179.65,407.31,181.33,405Z"/><polygon class="cls-9" points="176.41 403.55 200.13 370.97 141.02 377.78 176.41 403.55"/><polygon class="cls-9" points="141.88 377.28 176.61 328.9 199.56 370.82 141.88 377.28"/><polygon class="cls-9" points="200.13 370.97 223.86 338.38 176.61 328.9 200.13 370.97"/><polygon class="cls-9" points="223.86 338.38 247.36 306.75 176.61 328.9 223.86 338.38"/><polygon class="cls-9" points="176.61 328.9 212.2 280.03 247.59 305.8 176.61 328.9"/><polygon class="cls-9" points="105.62 352 129.35 319.43 141.02 377.78 105.62 352"/><polygon class="cls-9" points="141.33 377.18 176.61 328.9 129.35 319.43 141.33 377.18"/><polygon class="cls-9" points="129.35 319.43 153.08 286.84 176.61 328.9 129.35 319.43"/><polygon class="cls-9" points="153.08 286.84 176.68 255.11 176.61 328.9 153.08 286.84"/><polygon class="cls-9" points="176.61 328.9 212.2 280.03 177.03 254.51 176.61 328.9"/><polyline class="cls-9" points="81.95 334.76 105.62 352 129.35 319.43 85.26 328.63"/><polyline class="cls-9" points="106.08 296.66 153.08 286.84 129.35 319.43 103.15 300.35"/><polyline class="cls-9" points="162.62 257.22 176.22 254.81 153.08 286.84 141.77 278.61"/><line class="cls-10" x1="169.29" y1="248.78" x2="176.81" y2="254.25"/><g class="cls-11"><path class="cls-12" d="M114.82,102.29C110.87,117.05,99.59,128,79.36,128c-26.66,0-40.1-19.73-40.1-44.31,0-23.63,13.46-45,40.55-45,21,0,32.42,11.69,35.05,26.23H103c-3.19-9.47-9.61-16.62-23.71-16.62-19.66,0-27.7,17.44-27.7,35,0,17.07,7.64,35.05,28.21,35.05,13.75,0,19.77-7.68,23.12-16.13Z"/><path class="cls-12" d="M132.24,40h31.85c25,0,42,16.66,42,42.6,0,25.72-16.52,44.37-42.4,44.37H132.24Zm11.82,77.17h18.7c21,0,31-14.65,31-34.33,0-17.17-9.1-33-30.92-33H144.06Z"/><path class="cls-12" d="M240.6,49.86H211.81V40h69.52v9.88H252.5V127H240.6Z"/><path class="cls-12" d="M352.11,93.25a6.52,6.52,0,0,1-1.1,2.59,92.94,92.94,0,0,1-5.83,7.33,86.5,86.5,0,0,1-6.86,7,90.2,90.2,0,0,1-7.55,6.16,64,64,0,0,1-7.93,4.93,42.58,42.58,0,0,1-8,3.2,26.93,26.93,0,0,1-7.68,1.07q-8,0-12.43-4.54t-4.43-13.72a46.64,46.64,0,0,1,2.42-14.89A41,41,0,0,1,301,78.41a22.5,22.5,0,0,1,2.47-2.25,21.38,21.38,0,0,1,2.91-1.9,17,17,0,0,1,3.15-1.32,14.3,14.3,0,0,1,3.28-.58,9.32,9.32,0,0,1,1.1.09,10,10,0,0,1,1.5.35,9.78,9.78,0,0,1,1.55.61,3.51,3.51,0,0,1,1.2.9,14.24,14.24,0,0,1,2.23,3.22,9.07,9.07,0,0,1,.92,3.66,13.5,13.5,0,0,1-.52,4.42,17,17,0,0,1-2.1,4.45,30.34,30.34,0,0,1-3.88,4.68,75.37,75.37,0,0,1-5.81,5.2c-1.43,1.18-3,2.47-4.78,3.89a68.19,68.19,0,0,1-6.33,4.46q0,4.74,2.93,7.21t8,2.46a23.38,23.38,0,0,0,5.76-.73,38.64,38.64,0,0,0,5.7-1.93,49.21,49.21,0,0,0,5.43-2.73c1.75-1,3.4-2.08,4.93-3.15q4.26-3,7.71-6c2.3-2,4.59-4.11,6.85-6.33L348,94.43c1.63-1.4,2.82-2.1,3.55-2.1C351.91,92.33,352.11,92.64,352.11,93.25Zm-38.23-9.71a8.64,8.64,0,0,0-.23-1.44,4,4,0,0,0-.52-1.25,3.12,3.12,0,0,0-.8-.85,1.79,1.79,0,0,0-1.05-.32q-2.65.15-5.31,3.15a34,34,0,0,0-5,7.93,15.44,15.44,0,0,0-1,2.42c-.28.9-.55,1.81-.8,2.74s-.47,1.84-.65,2.75l-.48,2.45,4.81-3.52a51.49,51.49,0,0,0,4.1-3.32c.8-.72,1.62-1.49,2.45-2.32a23.15,23.15,0,0,0,2.28-2.61,13.09,13.09,0,0,0,1.63-2.83A7.23,7.23,0,0,0,313.88,83.54Z"/><path class="cls-12" d="M400.2,111.81a6.05,6.05,0,0,1-.32,1.78,8.1,8.1,0,0,1-1,2,18.26,18.26,0,0,1-2.38,3.1,20.79,20.79,0,0,1-3.3,2.88,18,18,0,0,1-4,2.12,12.11,12.11,0,0,1-4.45.83,9.8,9.8,0,0,1-5.18-1.32,12.25,12.25,0,0,1-3.75-3.58,21.12,21.12,0,0,1-2.61-5.3,48.65,48.65,0,0,1-1.67-6.4,50.79,50.79,0,0,1-5.23,6.2,59.3,59.3,0,0,1-6.26,5.54,38.65,38.65,0,0,1-6.35,4,13,13,0,0,1-5.53,1.54,6.49,6.49,0,0,1-3.08-.78,9,9,0,0,1-2.6-2.1,10.23,10.23,0,0,1-2.43-6.64,25.89,25.89,0,0,1,.33-4,28.93,28.93,0,0,1,1.1-4.52,54.14,54.14,0,0,1,2-5.24q1.22-2.83,3-6.21a43.28,43.28,0,0,1,4.75-7.2,51.21,51.21,0,0,1,5.6-6,33.64,33.64,0,0,1,5.43-4.06A9.1,9.1,0,0,1,366.47,77a3.32,3.32,0,0,1,1,.2l1.2.41q.63.22,1.2.39a3.36,3.36,0,0,0,1,.18,2,2,0,0,0,.8-.18,8.36,8.36,0,0,0,.8-.39l.8-.41a1.79,1.79,0,0,1,.8-.2,2.71,2.71,0,0,1,1.3.39,6.92,6.92,0,0,1,1.35,1,7.47,7.47,0,0,1,1.15,1.4,5.21,5.21,0,0,1,.7,1.51,3.29,3.29,0,0,0,.53,1.29,8.32,8.32,0,0,0,.65.76,3.39,3.39,0,0,1,.55.81,3.49,3.49,0,0,1,.22,1.44,11.6,11.6,0,0,1-.35,2c-.23,1-.49,2.25-.77,3.64s-.54,2.82-.78,4.32a27.12,27.12,0,0,0-.35,4.1,49.56,49.56,0,0,0,.6,8.54,17.67,17.67,0,0,0,1.65,5.25A6.09,6.09,0,0,0,383,116.2a6.52,6.52,0,0,0,3,.74,13.5,13.5,0,0,0,6.23-1.27,13.18,13.18,0,0,0,4.33-3.76l.95-1.22a1.06,1.06,0,0,1,.8-.54,1.84,1.84,0,0,1,1.28.54A1.53,1.53,0,0,1,400.2,111.81ZM372.23,90q0-3.66-1.13-5.27a3.16,3.16,0,0,0-2.58-1.61,7.31,7.31,0,0,0-2.52.46,12.48,12.48,0,0,0-2.43,1.2,14.21,14.21,0,0,0-2.1,1.61,10.8,10.8,0,0,0-1.55,1.71c-.8,1-1.65,2.23-2.53,3.56s-1.77,2.74-2.65,4.2-1.73,3-2.53,4.49-1.51,3-2.13,4.47a33.6,33.6,0,0,0-1.47,4.15,13.26,13.26,0,0,0-.55,3.54,6.72,6.72,0,0,0,.9,3.69c.6.93,1.73,1.39,3.4,1.39a5.41,5.41,0,0,0,2.5-1.05,31.66,31.66,0,0,0,3.53-2.66q1.88-1.62,3.68-3.49a28.06,28.06,0,0,0,2.95-3.59c.83-1.21,1.68-2.52,2.53-4s1.62-2.89,2.33-4.39a33.29,33.29,0,0,0,1.7-4.42A14.24,14.24,0,0,0,372.23,90Z"/></g><text class="cls-13" transform="translate(344.05 366.94) rotate(-36.35) scale(1.02 1)">Brewed in <tspan x="-11.5" y="5.52">Central </tspan><tspan class="cls-14" x="8.39" y="5.52">P</tspan><tspan x="12.03" y="5.52">ensylvania</tspan><tspan class="cls-15" x="-9.71" y="11.04">W</tspan><tspan x="-5.42" y="11.04">ith real simplices</tspan></text></g></svg>